<svg fill="none" height="32" width="228" xmlns="http://www.w3.org/2000/svg"><path d="M11.79 26h3.63V5.15h-5.28c-5.31 0-8.1 2.73-8.1 6.75 0 3.21 1.53 5.1 4.26 7.05L1.56 26h3.93l5.28-7.89-1.83-1.23c-2.22-1.5-3.3-2.67-3.3-5.19 0-2.22 1.56-3.72 4.53-3.72h1.62zm69.99.3c1.65 0 2.82-.3 3.69-.93v-2.91c-.9.63-1.98 1.02-3.48 1.02-2.55 0-3.6-1.98-3.6-5.1 0-3.27 1.29-4.95 3.63-4.95 1.38 0 2.73.48 3.45.93v-3.03c-.75-.42-2.07-.72-3.84-.72-4.56 0-6.93 3.27-6.93 7.86 0 5.04 2.31 7.83 7.08 7.83zm-22.32-1.32v-2.91c-1.11.75-2.97 1.41-4.71 1.41-2.61 0-3.6-1.23-3.75-3.75h8.61v-1.89c0-5.25-2.31-7.23-5.88-7.23-4.35 0-6.42 3.33-6.42 7.89 0 5.25 2.58 7.8 7.14 7.8 2.28 0 3.96-.6 5.01-1.32zM70.86 26h4.05l-5.73-8.01 5.04-7.08h-3.6l-5.04 7.08v-7.08h-3.57V26h3.57v-7.29zm-24.42-2.82h-1.59V10.91H34.44v1.29c0 3.69-.24 8.46-1.5 10.98h-1.11v6.27h3.3V26h8.01v3.45h3.3zM26.76 10.91v5.97h-4.77v-5.97h-3.57V26h3.57v-6.3h4.77V26h3.57V10.91zm26.91 2.52c1.77 0 2.31 1.47 2.31 3.36v.3H51c.09-2.4.96-3.66 2.67-3.66zm-12.39 9.75h-5.04c.99-2.28 1.26-6.39 1.26-9v-.45h3.78zM93.873 5.15V26h3.63V7.97h6.48V26h3.63V5.15zm20.029 5.76h-3.3v19.44h3.57v-6.12c.9 1.35 2.22 2.07 3.75 2.07 3.48 0 5.88-2.79 5.88-7.86 0-5.04-2.34-7.83-5.7-7.83-1.68 0-3.06.78-4.02 2.25zm3.12 12.57c-1.89 0-2.85-1.53-2.85-5.01 0-3.51 1.02-5.04 3.03-5.04 1.95 0 2.91 1.53 2.91 5.01 0 3.51-1.02 5.04-3.09 5.04zm20.299-7.77c0-3.66-1.86-5.04-5.64-5.04-2.37 0-4.23.75-5.31 1.38v2.97c.96-.72 3.06-1.5 4.89-1.5 1.71 0 2.49.6 2.49 2.22v.84h-.57c-5.46 0-7.89 1.8-7.89 4.86s1.86 4.77 4.62 4.77c2.1 0 3-.69 3.69-1.41h.15c.03.39.15.9.27 1.2h3.48a37.98 37.98 0 0 1-.18-3.69zm-3.57 6.69c-.45.66-1.29 1.2-2.55 1.2-1.5 0-2.25-.84-2.25-2.13 0-1.71 1.23-2.34 4.29-2.34h.51zm15.29 3.6h4.05l-5.73-8.01 5.04-7.08h-3.6l-5.04 7.08v-7.08h-3.57V26h3.57v-7.29zm16.019-12.27v-2.82h-11.97v2.82h4.2V26h3.57V13.73zm2.114-2.82V26h3.18l5.46-9.33V26h3.45V10.91h-3.18l-5.46 9.33v-9.33zM191.112 26h4.05l-5.73-8.01 5.04-7.08h-3.6l-5.04 7.08v-7.08h-3.57V26h3.57v-7.29zm7.191 4.65c3.33 0 4.56-2.37 5.58-5.46l4.71-14.28h-3.45l-3.33 11.34-3.33-11.34h-3.75l5.19 15.75c-.39.72-.96 1.17-1.95 1.17-.66 0-1.23-.21-1.62-.6v2.91s.54.51 1.95.51zM222.817 26h3.48l-.06-15.09h-4.89l-3.27 10.05-2.94-10.05h-5.19V26h3.03V14.72l3.27 11.28h2.91l3.66-11.28z" fill="#fff"/></svg>